<?xml version="1.0" ?><!DOCTYPE svg  PUBLIC '-//W3C//DTD SVG 1.1//EN'  'http://www.w3.org/Graphics/SVG/1.1/DTD/svg11.dtd'><svg enable-background="new 0 0 512 512" height="512px" id="Layer_1" version="1.1" viewBox="0 0 512 512" width="512px" xml:space="preserve" xmlns="http://www.w3.org/2000/svg" xmlns:xlink="http://www.w3.org/1999/xlink"><path d="M404.537,106.196H107.463c-43.632,0-79.107,38.666-79.107,86.194v127.225c0,47.523,35.475,86.189,79.107,86.189h297.074  c43.619,0,79.107-38.666,79.107-86.189V192.39C483.645,144.862,448.156,106.196,404.537,106.196z M457.748,319.615  c0,32.023-23.828,57.979-53.211,57.979H107.463c-29.396,0-53.224-25.955-53.224-57.979V192.39c0-32.021,23.828-57.983,53.224-57.983  h297.074c29.383,0,53.211,25.962,53.211,57.983V319.615z"/><path d="M268.389,269.328c-10.59-37.457-44.253-64.841-84.165-64.841c-31.038,0-58.27,16.552-73.855,41.499v96.844h287.809v-72.372  c-16.959-11.708-40.143-18.929-65.734-18.929C307.692,251.529,285.178,258.289,268.389,269.328z"/></svg>